<?xml version="1.0" encoding="UTF-8" standalone="no"?>
<svg
   viewBox="0 0 409600 262144"
   version="1.1"
   id="svg1"
   width="409600"
   height="262144"
   xmlns="http://www.w3.org/2000/svg"
   xmlns:svg="http://www.w3.org/2000/svg">
  <defs
     id="defs1" />
  <!--!Font Awesome Free 6.7.1 by @fontawesome - https://fontawesome.com License - https://fontawesome.com/license/free Copyright 2024 Fonticons, Inc.-->
  <path
     d="M 155.6,17.3 C 163,3 179.9,-3.6 195,1.9 L 320,47.5 445,1.9 c 15.1,-5.5 32,1.1 39.4,15.4 l 78.8,152.9 C 592,226 573.5,292.5 524.7,326.8 l 31.4,86.2 41,-15 c 16.6,-6 35,2.5 41,19.1 6,16.6 -2.5,35 -19.1,41 l -71.1,25.9 -71.1,26 c -16.6,6.1 -35,-2.5 -41,-19.1 -6,-16.6 2.5,-35 19.1,-41 l 41,-15 -31.3,-86.2 c -59.4,5.2 -116.2,-34 -130,-95.2 L 320,188.8 305.4,253.5 c -13.8,61.3 -70.6,100.4 -130,95.2 l -31.3,86.2 41,15 c 16.6,6 25.2,24.4 19.1,41 -6.1,16.6 -24.4,25.2 -41,19.1 L 92.2,484.1 21.1,458.2 C 4.5,452.1 -4.1,433.8 2,417.2 8.1,400.6 26.4,392 43,398.1 l 41,15 31.3,-86.2 C 66.5,292.5 48.1,226 76.9,170.2 Z m 44,54.4 -27.2,52.8 89.2,32.5 13.1,-57.9 z m 240.9,0 -75.1,27.4 13.1,57.9 89.2,-32.5 z"
     id="path1"
     style="fill:#ff5555" />
</svg>
